<svg id="Layer_2" data-name="Layer 2"
    xmlns="http://www.w3.org/2000/svg" viewBox="0 0 381.86 113.7">
    <defs>
        <style>.cls-1{fill:#2c2f1c;}</style>
    </defs>
    <title>Artboard 1 copy 5</title>
    <rect class="cls-1" x="83.56" y="38.25" width="24.89" height="4"/>
    <rect class="cls-1" x="83.56" y="71.44" width="24.89" height="4"/>
    <rect class="cls-1" x="83.56" y="54.84" width="12.44" height="4"/>
    <polygon class="cls-1" points="245.15 75.44 241.15 75.44 241.15 58.84 220.26 58.84 220.26 75.44 216.26 75.44 216.26 54.84 245.15 54.84 245.15 75.44"/>
    <rect class="cls-1" x="216.26" y="38.25" width="4" height="20.46"/>
    <path class="cls-1" d="M280.39,75.44a18.83,18.83,0,0,1-18.78-18.83v-2h4v2a14.78,14.78,0,1,0,14.78-14.82h-2v-4h2a18.83,18.83,0,0,1,0,37.65Z"/>
    <polygon class="cls-1" points="196.33 75.85 192.33 75.85 192.33 42.29 175.74 42.29 175.74 38.29 196.33 38.29 196.33 75.85"/>
    <polygon class="cls-1" points="154.66 38.25 154.66 68.98 123.37 37.69 123.37 43.35 155.48 75.45 158.66 75.45 158.66 38.25 154.66 38.25"/>
    <path class="cls-1" d="M56.14,75.44H37.54V54.84h18.6a10.3,10.3,0,0,1,0,20.6Zm-14.6-4h14.6a6.3,6.3,0,0,0,0-12.6H41.54Z"/>
    <path class="cls-1" d="M55.14,58.84h-2v-4h2a6.3,6.3,0,0,0,0-12.59H37.55v-4H55.14a10.3,10.3,0,0,1,0,20.59Z"/>
    <path class="cls-1" d="M323.63,56.5c-3.72-1.39-8-3.64-8-8.75,0-2.24,1.08-9.54,15-9.54.46,0,9.29.5,12.37,6a10.73,10.73,0,0,1,1.33,5.28h-4a6.68,6.68,0,0,0-.82-3.33c-1.67-3-7.05-3.88-9-4-6.77,0-10.86,2.07-10.86,5.54,0,1.55.65,3.23,5.39,5Z"/>
    <path class="cls-1" d="M329.06,75.44c-1.06,0-9.64-.59-12.77-6a10.47,10.47,0,0,1-1.39-5.31h4a6.44,6.44,0,0,0,.85,3.3c1.73,3,7.38,3.9,9.4,4,7.09,0,11.38-2.07,11.38-5.54,0-1.54-.69-3.21-5.64-5l1.36-3.76c3.85,1.38,8.28,3.62,8.28,8.75C344.53,68.14,343.41,75.44,329.06,75.44Z"/>
</svg>