<?xml version="1.0" encoding="utf-8"?>
<!-- Generator: Adobe Illustrator 27.0.0, SVG Export Plug-In . SVG Version: 6.00 Build 0)  -->
<svg version="1.1" id="Layer_2" xmlns="http://www.w3.org/2000/svg" xmlns:xlink="http://www.w3.org/1999/xlink" x="0px" y="0px"
	 viewBox="0 0 63 63.3" style="enable-background:new 0 0 63 63.3;" xml:space="preserve">
<path d="M35.6,49.8H17V29.2h18.6c5.7,0,10.3,4.6,10.3,10.3C45.9,45.2,41.3,49.8,35.6,49.8z M21,45.8h14.6c3.5,0,6.3-2.8,6.3-6.3
	c0-3.5-2.8-6.3-6.3-6.3H21V45.8z"/>
<path d="M34.6,33.2h-2v-4h2c3.5-0.1,6.2-3.1,6-6.5c-0.1-3.3-2.8-5.9-6-6H17v-4h17.6c5.7,0.2,10.2,4.9,10,10.6
	C44.4,28.6,40,33,34.6,33.2z"/>
</svg>
